<svg xmlns="http://www.w3.org/2000/svg" viewBox="0 0 800 600">
  <defs>
    <marker id="dep-arrow" markerWidth="10" markerHeight="7" refX="9" refY="3.5" orient="auto">
      <polygon points="0 0, 10 3.5, 0 7" fill="#6B7280"/>
    </marker>
  </defs>

  <!-- Background -->
  <rect width="800" height="600" fill="#FFFFFF"/>

  <!-- Title -->
  <text x="400" y="40" text-anchor="middle" font-family="Inter, system-ui, sans-serif" font-size="18" font-weight="700" fill="#9CA3AF">[Project] - Dependency Tree</text>

  <!-- Root goal -->
  <rect x="300" y="80" width="200" height="60" fill="none" stroke="#9CA3AF" stroke-width="2" stroke-dasharray="4" rx="4"/>
  <text x="400" y="105" text-anchor="middle" font-family="Inter, system-ui, sans-serif" font-size="12" font-weight="600" fill="#9CA3AF">[MAIN GOAL]</text>
  <text x="400" y="125" text-anchor="middle" font-family="Inter, system-ui, sans-serif" font-size="10" fill="#9CA3AF">[Description]</text>

  <!-- Level 1 dependencies -->
  <rect x="100" y="200" width="160" height="50" fill="none" stroke="#9CA3AF" stroke-width="2" stroke-dasharray="4" rx="4"/>
  <text x="180" y="230" text-anchor="middle" font-family="Inter, system-ui, sans-serif" font-size="11" fill="#9CA3AF">[Dependency 1]</text>

  <rect x="320" y="200" width="160" height="50" fill="none" stroke="#9CA3AF" stroke-width="2" stroke-dasharray="4" rx="4"/>
  <text x="400" y="230" text-anchor="middle" font-family="Inter, system-ui, sans-serif" font-size="11" fill="#9CA3AF">[Dependency 2]</text>

  <rect x="540" y="200" width="160" height="50" fill="none" stroke="#9CA3AF" stroke-width="2" stroke-dasharray="4" rx="4"/>
  <text x="620" y="230" text-anchor="middle" font-family="Inter, system-ui, sans-serif" font-size="11" fill="#9CA3AF">[Dependency 3]</text>

  <!-- Level 2 dependencies -->
  <rect x="50" y="320" width="140" height="50" fill="none" stroke="#9CA3AF" stroke-width="2" stroke-dasharray="4" rx="4"/>
  <text x="120" y="350" text-anchor="middle" font-family="Inter, system-ui, sans-serif" font-size="11" fill="#9CA3AF">[Sub-dep 1a]</text>

  <rect x="210" y="320" width="140" height="50" fill="none" stroke="#9CA3AF" stroke-width="2" stroke-dasharray="4" rx="4"/>
  <text x="280" y="350" text-anchor="middle" font-family="Inter, system-ui, sans-serif" font-size="11" fill="#9CA3AF">[Sub-dep 1b]</text>

  <rect x="450" y="320" width="140" height="50" fill="none" stroke="#9CA3AF" stroke-width="2" stroke-dasharray="4" rx="4"/>
  <text x="520" y="350" text-anchor="middle" font-family="Inter, system-ui, sans-serif" font-size="11" fill="#9CA3AF">[Sub-dep 3a]</text>

  <rect x="610" y="320" width="140" height="50" fill="none" stroke="#9CA3AF" stroke-width="2" stroke-dasharray="4" rx="4"/>
  <text x="680" y="350" text-anchor="middle" font-family="Inter, system-ui, sans-serif" font-size="11" fill="#9CA3AF">[Sub-dep 3b]</text>

  <!-- External dependencies (circles) -->
  <circle cx="120" cy="450" r="30" fill="none" stroke="#9CA3AF" stroke-width="2" stroke-dasharray="4"/>
  <text x="120" y="455" text-anchor="middle" font-family="Inter, system-ui, sans-serif" font-size="9" fill="#9CA3AF">[External]</text>

  <circle cx="520" cy="450" r="30" fill="none" stroke="#9CA3AF" stroke-width="2" stroke-dasharray="4"/>
  <text x="520" y="455" text-anchor="middle" font-family="Inter, system-ui, sans-serif" font-size="9" fill="#9CA3AF">[External]</text>

  <!-- Connecting lines (top-down) -->
  <line x1="400" y1="140" x2="180" y2="195" stroke="#9CA3AF" stroke-width="1.5" stroke-dasharray="4"/>
  <line x1="400" y1="140" x2="400" y2="195" stroke="#9CA3AF" stroke-width="1.5" stroke-dasharray="4"/>
  <line x1="400" y1="140" x2="620" y2="195" stroke="#9CA3AF" stroke-width="1.5" stroke-dasharray="4"/>

  <line x1="180" y1="250" x2="120" y2="315" stroke="#9CA3AF" stroke-width="1.5" stroke-dasharray="4"/>
  <line x1="180" y1="250" x2="280" y2="315" stroke="#9CA3AF" stroke-width="1.5" stroke-dasharray="4"/>

  <line x1="620" y1="250" x2="520" y2="315" stroke="#9CA3AF" stroke-width="1.5" stroke-dasharray="4"/>
  <line x1="620" y1="250" x2="680" y2="315" stroke="#9CA3AF" stroke-width="1.5" stroke-dasharray="4"/>

  <line x1="120" y1="370" x2="120" y2="415" stroke="#9CA3AF" stroke-width="1.5" stroke-dasharray="4"/>
  <line x1="520" y1="370" x2="520" y2="415" stroke="#9CA3AF" stroke-width="1.5" stroke-dasharray="4"/>

  <!-- Legend -->
  <rect x="50" y="520" width="16" height="16" fill="none" stroke="#9CA3AF" stroke-width="1" rx="2"/>
  <text x="75" y="532" font-family="Inter, system-ui, sans-serif" font-size="10" fill="#9CA3AF">Internal Task</text>

  <circle cx="158" cy="528" r="8" fill="none" stroke="#9CA3AF" stroke-width="1"/>
  <text x="175" y="532" font-family="Inter, system-ui, sans-serif" font-size="10" fill="#9CA3AF">External Dependency</text>

  <!-- Instructions -->
  <text x="400" y="570" text-anchor="middle" font-family="Inter, system-ui, sans-serif" font-size="10" fill="#9CA3AF">Replace placeholders. Use P1 (red) for blockers, solid lines for critical path.</text>
</svg>
