<svg xmlns="http://www.w3.org/2000/svg" viewBox="0 0 1000 500">
  <defs>
    <marker id="arrow" markerWidth="10" markerHeight="7" refX="9" refY="3.5" orient="auto">
      <polygon points="0 0, 10 3.5, 0 7" fill="#6B7280"/>
    </marker>
  </defs>

  <!-- Background -->
  <rect width="1000" height="500" fill="#FFFFFF"/>

  <!-- Title placeholder -->
  <text x="500" y="35" text-anchor="middle" font-family="Inter, system-ui, sans-serif" font-size="18" font-weight="700" fill="#9CA3AF">[Project Name] - Swimlane</text>

  <!-- Time headers -->
  <rect x="150" y="50" width="400" height="30" fill="#F3F4F6"/>
  <text x="350" y="70" text-anchor="middle" font-family="Inter, system-ui, sans-serif" font-size="12" font-weight="600" fill="#9CA3AF">[TIME PERIOD 1]</text>

  <rect x="550" y="50" width="400" height="30" fill="#F3F4F6"/>
  <text x="750" y="70" text-anchor="middle" font-family="Inter, system-ui, sans-serif" font-size="12" font-weight="600" fill="#9CA3AF">[TIME PERIOD 2]</text>

  <!-- Swimlane labels -->
  <rect x="0" y="80" width="150" height="100" fill="#8B5CF6" opacity="0.1"/>
  <rect x="0" y="80" width="5" height="100" fill="#8B5CF6"/>
  <text x="75" y="135" text-anchor="middle" font-family="Inter, system-ui, sans-serif" font-size="12" font-weight="600" fill="#8B5CF6">LANE 1</text>

  <rect x="0" y="180" width="150" height="100" fill="#EC4899" opacity="0.1"/>
  <rect x="0" y="180" width="5" height="100" fill="#EC4899"/>
  <text x="75" y="235" text-anchor="middle" font-family="Inter, system-ui, sans-serif" font-size="12" font-weight="600" fill="#EC4899">LANE 2</text>

  <rect x="0" y="280" width="150" height="100" fill="#3B82F6" opacity="0.1"/>
  <rect x="0" y="280" width="5" height="100" fill="#3B82F6"/>
  <text x="75" y="335" text-anchor="middle" font-family="Inter, system-ui, sans-serif" font-size="12" font-weight="600" fill="#3B82F6">LANE 3</text>

  <rect x="0" y="380" width="150" height="100" fill="#10B981" opacity="0.1"/>
  <rect x="0" y="380" width="5" height="100" fill="#10B981"/>
  <text x="75" y="435" text-anchor="middle" font-family="Inter, system-ui, sans-serif" font-size="12" font-weight="600" fill="#10B981">LANE 4</text>

  <!-- Lane dividers -->
  <line x1="0" y1="180" x2="1000" y2="180" stroke="#E5E7EB" stroke-width="1"/>
  <line x1="0" y1="280" x2="1000" y2="280" stroke="#E5E7EB" stroke-width="1"/>
  <line x1="0" y1="380" x2="1000" y2="380" stroke="#E5E7EB" stroke-width="1"/>
  <line x1="550" y1="80" x2="550" y2="480" stroke="#E5E7EB" stroke-width="1" stroke-dasharray="4"/>

  <!-- Task placeholders - Lane 1 -->
  <rect x="170" y="100" width="140" height="40" fill="none" stroke="#9CA3AF" stroke-width="2" stroke-dasharray="4" rx="4"/>
  <text x="240" y="125" text-anchor="middle" font-family="Inter, system-ui, sans-serif" font-size="11" fill="#9CA3AF">[Task]</text>

  <rect x="570" y="100" width="140" height="40" fill="none" stroke="#9CA3AF" stroke-width="2" stroke-dasharray="4" rx="4"/>
  <text x="640" y="125" text-anchor="middle" font-family="Inter, system-ui, sans-serif" font-size="11" fill="#9CA3AF">[Task]</text>

  <!-- Task placeholders - Lane 2 -->
  <rect x="170" y="200" width="140" height="40" fill="none" stroke="#9CA3AF" stroke-width="2" stroke-dasharray="4" rx="4"/>
  <text x="240" y="225" text-anchor="middle" font-family="Inter, system-ui, sans-serif" font-size="11" fill="#9CA3AF">[Task]</text>

  <rect x="350" y="200" width="140" height="40" fill="none" stroke="#9CA3AF" stroke-width="2" stroke-dasharray="4" rx="4"/>
  <text x="420" y="225" text-anchor="middle" font-family="Inter, system-ui, sans-serif" font-size="11" fill="#9CA3AF">[Task]</text>

  <rect x="570" y="200" width="140" height="40" fill="none" stroke="#9CA3AF" stroke-width="2" stroke-dasharray="4" rx="4"/>
  <text x="640" y="225" text-anchor="middle" font-family="Inter, system-ui, sans-serif" font-size="11" fill="#9CA3AF">[Task]</text>

  <!-- Task placeholders - Lane 3 -->
  <rect x="170" y="300" width="140" height="40" fill="none" stroke="#9CA3AF" stroke-width="2" stroke-dasharray="4" rx="4"/>
  <text x="240" y="325" text-anchor="middle" font-family="Inter, system-ui, sans-serif" font-size="11" fill="#9CA3AF">[Task]</text>

  <rect x="570" y="300" width="140" height="40" fill="none" stroke="#9CA3AF" stroke-width="2" stroke-dasharray="4" rx="4"/>
  <text x="640" y="325" text-anchor="middle" font-family="Inter, system-ui, sans-serif" font-size="11" fill="#9CA3AF">[Task]</text>

  <rect x="750" y="300" width="140" height="40" fill="none" stroke="#9CA3AF" stroke-width="2" stroke-dasharray="4" rx="4"/>
  <text x="820" y="325" text-anchor="middle" font-family="Inter, system-ui, sans-serif" font-size="11" fill="#9CA3AF">[Task]</text>

  <!-- Task placeholders - Lane 4 -->
  <rect x="170" y="400" width="140" height="40" fill="none" stroke="#9CA3AF" stroke-width="2" stroke-dasharray="4" rx="4"/>
  <text x="240" y="425" text-anchor="middle" font-family="Inter, system-ui, sans-serif" font-size="11" fill="#9CA3AF">[Task]</text>

  <rect x="750" y="400" width="140" height="40" fill="none" stroke="#9CA3AF" stroke-width="2" stroke-dasharray="4" rx="4"/>
  <text x="820" y="425" text-anchor="middle" font-family="Inter, system-ui, sans-serif" font-size="11" fill="#9CA3AF">[Task]</text>

  <!-- Instructions -->
  <text x="500" y="475" text-anchor="middle" font-family="Inter, system-ui, sans-serif" font-size="10" fill="#9CA3AF">Replace placeholders. Add arrows between dependent tasks. Apply colors from vsm-tokens.json</text>
</svg>
